P3
# foo
3 5
255
83
83
83
83
83
83
255
255
255
255
255
255
83
83
83
255
255
255
255
255
255
83
83
83
255
255
255
255
255
255
83
83
83
255
255
255
83
83
83
83
83
83
83
83
83
