P3
# Created by GIMP version 2.10.20 PNM plug-in
3 5
255
83
83
83
83
83
83
83
83
83
83
83
83
255
255
255
83
83
83
83
83
83
83
83
83
83
83
83
83
83
83
255
255
255
83
83
83
83
83
83
83
83
83
83
83
83
